<?xml version="1.0" encoding="UTF-8" standalone="no"?>
<svg
   xmlns:dc="http://purl.org/dc/elements/1.1/"
   xmlns:cc="http://creativecommons.org/ns#"
   xmlns:rdf="http://www.w3.org/1999/02/22-rdf-syntax-ns#"
   xmlns:svg="http://www.w3.org/2000/svg"
   xmlns="http://www.w3.org/2000/svg"
   width="256"
   height="256"
   id="svg2"
   version="1.1">
  <defs
     id="defs4" />
  <metadata
     id="metadata7">
    <rdf:RDF>
      <cc:Work
         rdf:about="">
        <dc:format>image/svg+xml</dc:format>
        <dc:type
           rdf:resource="http://purl.org/dc/dcmitype/StillImage" />
        <dc:title></dc:title>
      </cc:Work>
    </rdf:RDF>
  </metadata>
  <circle
     r="128"
     cy="128"
     cx="128"
     id="circle3349"
     style="opacity:1;fill:#d4b479;fill-opacity:1;stroke:none;stroke-width:4;stroke-linecap:round;stroke-linejoin:round;stroke-miterlimit:4;stroke-dasharray:none;stroke-dashoffset:0;stroke-opacity:1" />
  <path
     style="opacity:1;fill:#6f4d3a;fill-opacity:1;stroke:none;stroke-width:3;stroke-linecap:round;stroke-linejoin:round;stroke-miterlimit:4;stroke-dasharray:none;stroke-dashoffset:0;stroke-opacity:1"
     d="m 130.93164,25.61914 c -4.64595,0.0393 -10.06775,0.82413 -16.24023,2.33203 l -0.63282,1.88281 c 1.19633,-0.31753 2.43905,-0.67641 3.60743,-1.08007 3.21044,-1.10928 6.16289,-1.55658 6.95703,-1.05274 1.0485,0.66522 0.97124,0.88048 -0.32617,0.89258 -1.67762,0.0161 -6.01677,3.95561 -5.15626,4.68164 0.24172,0.20395 1.28646,0.82597 2.32227,1.38086 1.68992,0.90521 1.50616,1.37457 -1.79492,4.57422 l -3.67774,3.56641 -0.3457,-3.61524 c -0.2484,-2.59814 -0.79667,-3.48932 -1.95117,-3.17383 -0.62265,0.17021 -1.24048,0.31136 -1.85156,0.43555 l -5.15625,15.36328 -2.40625,-0.80859 c -4.37536,-1.46838 -7.60827,-1.63378 -9.70118,-0.49414 -1.42495,0.77591 -2.72056,2.37796 -3.89257,4.76367 l -8.82422,26.29101 c -0.74457,2.21861 -1.52005,4.24665 -2.32227,6.11524 l -1.19726,3.56445 c -1.62961,4.00695 -4.08676,7.6512 -6.8125,10.91602 0.86884,0.94154 0.0349,2.72913 -2.53125,5.12304 -2.49358,2.32623 -2.69802,2.91158 -1.33789,3.82032 0.88318,0.59012 2.92963,1.36086 4.54882,1.71289 3.22461,0.70105 3.96589,3.61613 1.50391,5.91601 -1.40758,1.31483 -0.95384,6.43639 0.82617,9.31641 1.20673,1.95257 3.9823,1.36556 4.59375,-0.97266 0.38523,-1.47298 1.16562,-1.98197 2.42578,-1.58203 2.58572,0.82066 4.69951,-2.13302 4.85547,-6.7832 0.0722,-2.15451 1.69341,-6.97612 3.60352,-10.71485 3.19043,-6.24466 3.33648,-6.94961 1.7832,-8.66601 -0.92994,-1.02752 -2.49081,-5.55404 -3.46875,-10.06055 -1.77265,-8.16854 -1.77067,-8.20307 0.60742,-10.73437 1.9766,-2.10397 3.52201,-2.56069 9.01953,-2.66992 8.40993,-0.16703 14.58384,-0.99537 22.69141,-3.04297 4.57942,-1.15657 8.98292,-1.43035 15.33984,-0.95508 10.82897,0.80957 15.72584,-0.94421 21.95704,-7.86133 l 4.11132,-4.5625 -3.04101,-3.23047 -3.03906,-3.22851 2.67578,0.72851 2.67773,0.73047 -2.67773,-2.18555 c -1.47199,-1.20148 -3.11652,-2.19393 -3.65625,-2.20703 -0.53973,-0.0131 -0.67322,-0.33273 -0.29493,-0.71094 0.3783,-0.37831 1.53846,-0.0171 2.57618,0.80274 1.78188,1.40785 1.79158,1.34203 0.17773,-1.18555 -3.27115,-5.12322 -10.46065,-6.83282 -15.92969,-3.78711 -2.0616,1.14803 -2.30922,1.62942 -1.07226,2.09571 0.88318,0.33302 4.25577,1.54926 7.49414,2.70312 5.56493,1.98287 5.65074,2.0667 1.55469,1.51172 -3.1972,-0.43318 -4.70615,-0.13909 -5.75196,1.12109 -0.77968,0.93943 -2.82013,1.70703 -4.53515,1.70703 -1.715,0 -4.30655,0.77761 -5.75782,1.72852 -3.45798,2.26575 -3.32856,1.57464 0.64063,-3.41992 3.10285,-3.90443 3.17653,-4.20296 1.33984,-5.5625 -1.06768,-0.79023 -3.97457,-1.98705 -6.45898,-2.65821 -2.48439,-0.67114 -4.77175,-1.88098 -5.08203,-2.68945 -0.76528,-1.99434 1.14113,-5.31601 3.47461,-6.05664 4.89212,-1.5527 27.79482,7.47549 35.61328,14.03906 2.86341,2.40376 3.43071,2.59867 2.80469,0.95899 -0.46787,-1.22544 -0.27452,-2.37251 0.47851,-2.83789 1.70241,-1.05219 -4.48565,-7.21287 -11.00391,-10.95703 -2.74733,-1.57808 -6.42205,-4.29704 -8.16601,-6.04102 -3.52001,-3.51998 -8.91198,-5.24893 -16.16797,-5.1875 z m 32.49609,11.02344 c -0.17321,0.0678 0.87229,1.00116 3.25586,3.11914 2.35518,2.09269 3.72582,3.81031 3.04493,3.82031 -1.87686,0.0242 -0.67944,3.68535 5.08593,15.53906 7.47923,15.37729 9.60766,25.08258 10.3086,47.01953 0.54104,16.93223 0.68285,17.91315 2.18359,15.04883 1.23067,-2.34878 1.73359,-8.61836 2.15234,-26.85547 0.14666,-6.38705 0.22254,-11.0193 0.22461,-14.67382 l -0.0234,-0.008 0.0234,-0.0703 c 0.002,-8.1207 -0.40246,-10.85168 -1.48632,-13.56055 -3.6159,-9.03701 -16.04023,-24.7684 -22.20899,-28.11914 -1.55222,-0.8431 -2.42582,-1.31247 -2.56055,-1.25976 z m -44.51171,69.18359 c -0.58211,-0.007 -1.20381,0.0557 -1.72461,0.19141 -1.0416,0.2715 -0.44803,0.511 1.31836,0.5332 1.76639,0.0217 2.61932,-0.20089 1.89453,-0.49414 -0.3624,-0.14638 -0.90618,-0.22331 -1.48828,-0.23047 z m 56.82421,2.22852 c -0.91087,-0.0947 -2.21227,0.34208 -4.78515,1.21875 -6.08275,2.07267 -11.3606,2.27804 -13.12696,0.51172 -0.96043,-0.96027 -1.91975,-0.95307 -4.08007,0.0312 -2.22863,1.01544 -2.71529,1.85346 -2.31055,3.9707 0.35787,1.87213 -0.0846,3.00264 -1.46289,3.74023 -2.48077,1.32772 -4.33187,4.69042 -3.60547,6.55078 0.72147,1.84768 10.94592,2.332 14.18164,0.67188 1.85515,-0.95182 2.72924,-0.94846 3.69336,0.0156 1.29357,1.2936 9.60008,1.77488 10.75195,0.62305 0.35207,-0.35194 0.38129,-1.31504 0.0645,-2.14062 -0.43086,-1.12285 -2.83982,-1.50196 -9.56055,-1.50196 -6.48306,0 -8.98115,-0.37238 -8.96875,-1.33789 0.0363,-2.96558 1.97271,-3.75209 10.41992,-4.23047 7.93402,-0.44938 8.83203,-0.30725 8.83203,1.40039 0,1.76823 1.82003,3.78393 2.65235,2.9375 0.20271,-0.20614 0.68793,-2.08445 1.07812,-4.17382 0.5398,-2.89048 0.22186,-4.39989 -1.33008,-6.31641 -1.01145,-1.24915 -1.53248,-1.87605 -2.44336,-1.9707 z m -41.75976,0.82226 c -1.34932,0.0497 -2.94921,0.60035 -4.91016,1.62305 -1.9505,1.01724 -6.1028,1.60547 -11.41015,1.60547 -6.37995,0.005 -8.26985,0.34206 -8.0293,1.42969 0.173,0.78229 -1.13009,2.67894 -2.89648,4.21484 -3.04846,2.6506 -3.11865,2.88682 -1.36133,4.67188 1.7651,1.79279 1.96571,1.77733 4.2832,-0.33399 3.99029,-3.63554 6.78863,-4.62305 13.09961,-4.62305 3.29599,0 7.74852,-0.73422 9.89453,-1.63086 3.11835,-1.30295 4.07642,-1.3566 4.76758,-0.26757 1.47063,2.31718 1.01023,2.96875 -2.09961,2.96875 -1.64863,0 -3.45627,0.43694 -4.01563,0.9707 -0.55935,0.53373 -4.38819,1.49421 -8.50976,2.13476 -4.12157,0.64056 -8.94064,1.64563 -10.70703,2.23243 -2.45825,0.81672 -0.82551,0.97363 6.95898,0.67383 5.59355,-0.21534 11.57725,-1.04678 13.29688,-1.84961 2.44379,-1.14088 3.223,-1.17085 3.56836,-0.13477 0.82918,2.48751 3.03117,1.33145 4.10351,-2.1543 0.84894,-2.75951 0.66862,-4.31011 -0.87109,-7.49414 -1.36106,-2.81462 -2.91324,-4.11987 -5.16211,-4.03711 z m -67.05274,15.69922 c -0.19855,1.01123 -0.45163,2.01988 -0.78515,3.01367 l -0.23047,0.68946 c 0.86402,5.46118 3.40114,11.8869 6.29883,15.40234 1.70361,2.06672 3.2794,3.75781 3.5,3.75781 0.22059,0 -1.11883,-3.24693 -2.97656,-7.21679 -1.85775,-3.96995 -4.20734,-10.1131 -5.22071,-13.65039 -0.25097,-0.87606 -0.39835,-1.35756 -0.58594,-1.9961 z m 86.24805,2.52344 c -0.58878,0 -0.7721,0.4815 -0.4082,1.07031 0.36389,0.58881 1.14362,1.07031 1.73242,1.07031 0.58879,0 0.77208,-0.4815 0.4082,-1.07031 -0.3639,-0.58881 -1.14362,-1.07031 -1.73242,-1.07031 z m 32.94141,5.61328 c -0.23952,0.077 -0.58673,1.50966 -1.01563,4.28906 -0.34314,2.22377 -0.17096,4.01367 0.38477,4.01367 0.55176,0 1.00195,-2.00569 1.00195,-4.45898 0,-2.64149 -0.13157,-3.92079 -0.37109,-3.84375 z m -102.61133,11.08399 c -0.32641,-0.0131 -0.28943,0.71611 -0.0391,2.42187 0.35465,2.41644 -0.003,3.28413 -1.51563,3.67383 -1.652,0.42552 -1.58994,0.5311 0.37891,0.63476 1.8582,0.0978 2.50749,0.97799 3.04687,4.13868 0.37678,2.20795 1.15283,5.86937 1.72461,8.13671 1.52499,6.04746 2.16028,4.13306 0.86719,-2.61132 -0.61094,-3.18645 -1.29486,-7.66355 -1.52148,-9.94922 -0.22663,-2.28566 -1.0939,-4.83805 -1.92774,-5.67188 -0.4904,-0.49042 -0.81783,-0.7656 -1.01367,-0.77343 z m 46.38086,2.57226 c -1.26072,0 -9.77149,9.30348 -9.77149,10.68164 0,2.50038 2.38627,0.78155 5.30469,-3.82031 l 3.11719,-4.91406 2.40039,5.57812 c 1.59448,3.7065 3.82694,6.6139 6.6543,8.66211 5.41662,3.92375 8.91992,3.8899 14.47851,-0.13672 4.87821,-3.53377 5.92191,-6.03416 2.03516,-4.8789 -11.81797,3.51252 -23.28516,-0.78912 -23.28516,-8.73438 0,-1.34089 -0.41979,-2.4375 -0.93359,-2.4375 z m 28.29687,0.26953 c -0.0773,-0.0229 -0.1333,-0.0229 -0.16211,0.006 -0.23048,0.23053 1.62377,4.06316 4.1211,8.51563 2.49734,4.45246 4.71038,7.94196 4.91601,7.7539 0.20567,-0.18805 0.0361,-2.33403 -0.375,-4.76758 -0.50629,-2.99669 -1.95565,-5.63342 -4.49414,-8.17187 -1.8037,-1.80372 -3.46436,-3.17539 -4.00586,-3.33594 z m 1.33203,22.44336 c -1.83031,-0.0135 -5.17886,0.10147 -10.49609,0.29102 -7.94874,0.28349 -17.58298,0.86163 -21.41015,1.28515 -5.99667,0.66351 -6.51378,0.88169 -3.7461,1.57227 4.99447,1.24617 28.29566,0.0558 34.25586,-1.75 3.28224,-0.99448 4.44701,-1.37589 1.39648,-1.39844 z m -71.0332,4.28125 c -0.75145,0.7514 2.25005,15.56794 3.44531,17.00781 0.68866,0.82961 1.60907,2.94979 2.04493,4.71289 2.1631,8.74991 8.47522,16.03616 17.52343,20.22266 3.98722,1.84495 6.9387,2.25391 16.25,2.25391 9.57079,0 10.93074,0.19742 8.56446,1.25 -5.3036,2.35924 -1.2789,1.41263 7.20898,-1.67188 l 4.41406,-13.15625 2.3418,0.78711 c 4.37536,1.46839 7.60826,1.63378 9.70117,0.49414 2.09289,-1.1396 3.91318,-4.01703 5.46094,-8.6289 l 3.03125,-9.03321 c -2.73134,3.67885 -5.98785,7.11937 -8.8457,9.1543 -3.85607,2.74584 -18.59156,3.87439 -24.18555,1.85156 -2.6599,-0.96136 -4.10224,-0.94135 -6.36133,0.0879 -2.51614,1.1465 -3.30507,1.04578 -5.67383,-0.72265 -1.51306,-1.1297 -2.81116,-2.6049 -2.88476,-3.27735 -0.28165,-2.57339 -0.46018,-2.78939 -1.25977,-1.53125 -1.25221,1.97049 -10.71235,-2.85321 -15.05078,-7.67383 -2.68352,-2.98169 -4.23153,-3.87675 -6.08984,-3.52148 -1.97614,0.37779 -3.19362,-0.49949 -5.88281,-4.24414 -1.86492,-2.59685 -3.55378,-4.55955 -3.75196,-4.36133 z m 56.38672,2.98047 c -4.22336,0 -5.89768,1.36464 -3.07422,2.50391 2.55601,1.03135 4.82905,0.69836 6.1543,-0.89844 1.14797,-1.38328 0.72141,-1.60547 -3.08008,-1.60547 z m -61.56641,0.40234 c -1.84964,0.0613 -2.39684,9.4686 -0.625,14.12891 1.47708,3.8851 2.13158,2.9354 1.16602,-1.69141 -0.42926,-2.05676 -0.45616,-5.55669 -0.0586,-7.77734 0.39765,-2.22063 0.35465,-4.26463 -0.0957,-4.54297 -0.13457,-0.0832 -0.26341,-0.12127 -0.38672,-0.11719 z m -5.68164,28.77344 c -0.19731,-0.0963 -0.22252,0.72414 -0.25976,2.58594 -0.0373,1.86549 0.29474,4.2731 0.73633,5.35156 0.68701,1.67804 0.84798,1.56927 1.11914,-0.75586 0.17429,-1.49484 -0.1558,-3.90234 -0.73438,-5.35156 -0.44914,-1.12511 -0.70786,-1.75518 -0.86133,-1.83008 z m 11.0586,0.96094 c -0.0854,0.002 -0.15607,0.0291 -0.21094,0.084 -1.09913,1.0991 1.0377,7.40723 3.35742,9.91016 2.5319,2.73182 4.73828,3.51555 4.73828,1.68359 0,-0.55409 -0.48153,-1.30405 -1.07031,-1.66797 -0.5888,-0.36391 -1.07031,-1.52696 -1.07031,-2.58398 0,-1.83789 -4.46297,-7.45447 -5.74414,-7.42578 z m 8.02734,5.63867 0.61524,3.25586 c 0.338,1.79059 1.02526,4.06435 1.52929,5.05273 0.96242,1.88692 8.33682,3.82689 19.65821,5.17383 9.52346,1.13293 16.33764,1.04745 22.41796,-0.74218 l 1.42383,-4.2461 c -4.29898,1.1112 -8.59258,1.68149 -12.44531,1.58399 -5.45466,-0.13801 -6.11567,-0.30116 -2.83203,-0.69727 3.44041,-0.41487 2.13313,-0.78357 -6.65234,-1.88086 -7.73561,-0.96611 -12.80394,-2.26408 -17.32422,-4.43359 l -6.39063,-3.06641 z m 2.94141,3.83594 c 0.58878,0 1.3685,0.4816 1.73242,1.07031 0.36389,0.58891 0.1806,1.07031 -0.4082,1.07031 -0.58879,0 -1.36855,-0.4814 -1.73243,-1.07031 -0.36391,-0.58871 -0.1806,-1.07031 0.40821,-1.07031 z"
     id="path3351" />
  <path
     style="font-style:normal;font-variant:normal;font-weight:normal;font-stretch:normal;font-size:medium;line-height:0%;font-family:FreeSans;-inkscape-font-specification:FreeSans;text-align:center;letter-spacing:0px;word-spacing:0px;text-anchor:middle;fill:#281f1a;fill-opacity:1;stroke:none;stroke-width:1px;stroke-linecap:butt;stroke-linejoin:miter;stroke-opacity:1"
     d="m 93.97947,26.53037 c -5.97199,-2.00422 -11.29831,-1.55408 -15.97785,1.34778 -4.52613,2.82558 -7.9837,7.79769 -10.37335,14.91814 l -9.65492,28.76882 c -2.69799,8.03922 -5.60225,13.45435 -8.71091,16.2445 -3.07013,2.67532 -7.30461,3.68126 -12.70471,3.019 l -3.98948,11.88747 c 4.70633,2.7295 7.45741,6.14365 8.25351,10.24425 0.79611,4.10061 -0.13512,10.11408 -2.79456,18.03846 l -9.65492,28.76881 c -2.38965,7.12045 -2.63158,13.17175 -0.72635,18.15571 1.98155,5.13735 5.95796,8.70952 11.92995,10.71374 l 7.92499,2.65966 3.75832,-11.19868 -2.58488,-0.86749 c -4.2493,-1.42608 -6.85131,-3.19274 -7.80471,-5.30165 -0.9534,-2.10889 -0.6776,-5.40268 0.82557,-9.88168 l 10.46461,-31.18148 c 4.62513,-13.78153 2.96145,-24.43511 -4.9913,-31.95977 5.97668,-0.29426 10.67196,-2.10279 14.08819,-5.42864 3.41622,-3.32584 6.45484,-8.95115 9.11428,-16.87552 l 10.46462,-31.18149 c 1.50317,-4.479 3.27023,-7.27232 5.30282,-8.3791 2.0326,-1.10679 5.17357,-0.94609 9.42288,0.47999 l 2.58487,0.8675 3.75832,-11.19867 -7.92499,-2.65966 z m 113.7828,38.18592 -3.75832,11.19867 2.58488,0.86749 c 4.2493,1.42608 6.85131,3.19274 7.80471,5.30165 0.9534,2.10889 0.67759,5.40268 -0.82557,9.88167 l -10.46462,31.18149 c -2.65945,7.92438 -3.62955,14.24388 -2.91132,18.95727 0.71823,4.71338 3.3719,8.98824 7.96104,12.82844 -10.88199,1.20364 -18.63576,8.69669 -23.26089,22.47822 l -10.46462,31.18149 c -1.50317,4.479 -3.27022,7.27232 -5.30281,8.3791 -2.0326,1.10679 -5.17357,0.94609 -9.42287,-0.47999 l -2.58488,-0.8675 -3.75831,11.19868 7.92498,2.65965 c 5.97199,2.00422 11.29831,1.55408 15.97784,-1.34778 4.52614,-2.82557 7.9837,-7.7977 10.37335,-14.91814 l 9.65492,-28.76882 c 2.65945,-7.92437 5.54261,-13.28277 8.65128,-16.07292 3.10866,-2.79015 7.36424,-3.85284 12.76435,-3.19058 l 3.98948,-11.88747 c -4.70634,-2.7295 -7.47852,-6.0869 -8.31316,-10.07267 -0.79611,-4.10061 0.15621,-10.17082 2.85421,-18.21004 l 9.65491,-28.76881 c 2.38965,-7.12045 2.63159,-13.17175 0.72635,-18.15572 -1.98154,-5.13734 -5.95796,-8.70951 -11.92995,-10.71373 l -7.92498,-2.65965 z"
     id="path3353" />
</svg>
